<svg width="40" height="40" viewBox="0 0 40 40" fill="none" xmlns="http://www.w3.org/2000/svg">
<path d="M9.32216 32C8.95274 31.9994 8.60058 31.8435 8.35159 31.5706C8.09801 31.2998 7.97201 30.9337 8.00524 30.5642L8.32789 27.0154L23.2328 12.1116L27.8908 16.7695L12.9898 31.672L9.442 31.9947C9.40118 31.9987 9.36035 32 9.32216 32ZM28.8206 15.8382L24.1639 11.1803L26.9571 8.38634C27.2041 8.13899 27.5393 8 27.8888 8C28.2384 8 28.5735 8.13899 28.8206 8.38634L31.6138 11.1803C31.861 11.4274 32 11.7627 32 12.1123C32 12.4619 31.861 12.7972 31.6138 13.0443L28.8219 15.8369L28.8206 15.8382Z" fill="white"/>
</svg>
