<svg width="22" height="22" viewBox="0 0 22 22" fill="none" xmlns="http://www.w3.org/2000/svg">
<path d="M13.1997 21.9987H2.20103C1.61158 22.0192 1.04009 21.794 0.62303 21.377C0.205975 20.9599 -0.0191987 20.3884 0.00128491 19.799V8.80026C-0.0191987 8.21081 0.205975 7.63931 0.62303 7.22226C1.04009 6.8052 1.61158 6.58003 2.20103 6.60051H6.60051V2.20103C6.58003 1.61158 6.8052 1.04009 7.22226 0.62303C7.63931 0.205975 8.21081 -0.0191987 8.80026 0.00128491H19.799C20.3884 -0.0191987 20.9599 0.205975 21.377 0.62303C21.794 1.04009 22.0192 1.61158 21.9987 2.20103V13.1997C22.0189 13.7891 21.7936 14.3604 21.3766 14.7774C20.9596 15.1944 20.3883 15.4196 19.799 15.3995H15.3995V19.799C15.4196 20.3883 15.1944 20.9596 14.7774 21.3766C14.3604 21.7936 13.7891 22.0189 13.1997 21.9987ZM2.20103 8.80026V19.799H13.1997V15.3995H8.80026C8.2109 15.4196 7.6396 15.1944 7.22262 14.7774C6.80564 14.3604 6.58036 13.7891 6.60051 13.1997V8.80026H2.20103ZM8.80026 2.20103V13.1997H19.799V2.20103H8.80026Z" fill="#FFFFFB"/>
</svg>
